<svg width="620" height="620" viewBox="0 0 620 620" fill="none" xmlns="http://www.w3.org/2000/svg">
<g clip-path="url(#clip0_790_4)">
<mask id="mask0_790_4" style="mask-type:alpha" maskUnits="userSpaceOnUse" x="0" y="0" width="620" height="620">
<circle cx="310" cy="310" r="309.5" fill="#D9D9D9" stroke="#F36006"/>
</mask>
<g mask="url(#mask0_790_4)">
<path d="M618.813 287.228L695.478 356.257L667.107 387.767L618.454 343.959L617.729 343.307L617.623 344.276C616.01 358.917 613.375 373.25 609.793 387.203L609.718 387.496L609.943 387.699L641.546 416.155L613.175 447.664L595.394 431.654L594.875 431.186L594.6 431.828C589.519 443.681 583.72 455.153 577.256 466.189L577.051 466.541L577.353 466.813L587.614 476.052L559.243 507.562L553.285 502.197L552.89 501.841L552.559 502.258C544.851 511.969 536.573 521.206 527.775 529.919L527.399 530.292L527.792 530.646L533.682 535.95L505.311 567.459L495.288 558.434L494.984 558.16L494.655 558.405C484.397 566.043 473.65 573.06 462.469 579.402L461.866 579.744L462.381 580.208L479.751 595.847L451.379 627.357L420.446 599.504L420.219 599.3L419.934 599.408C406.492 604.517 392.601 608.717 378.338 611.931L377.395 612.144L378.113 612.791L425.819 655.745L397.447 687.254L322.1 619.411L321.949 619.275L321.746 619.282C317.849 619.428 313.932 619.501 309.999 619.501C293.83 619.501 277.952 618.262 262.453 615.872L260.797 615.617L262.042 616.738L371.887 715.642L343.515 747.152L156.703 578.945L156.663 578.909L156.617 578.883C118.009 556.811 84.6123 526.664 58.7282 490.743L58.6969 490.7L58.6572 490.664L-127.031 323.469L-98.66 291.96L9.91179 389.719L11.1578 390.841L10.7298 389.219C5.74538 370.339 2.5002 350.752 1.17609 330.641L1.16273 330.438L1.01172 330.302L-73.0992 263.572L-44.7281 232.063L1.78246 273.941L2.50117 274.588L2.61363 273.627C4.31898 259.06 7.03595 244.802 10.6924 230.925L10.7701 230.63L10.5434 230.426L-19.1673 203.674L9.20384 172.165L25.3248 186.681L25.8406 187.145L26.1177 186.509C31.2595 174.705 37.1158 163.285 43.6322 152.302L43.8413 151.95L43.5367 151.675L34.7646 143.777L63.1358 112.268L67.7889 116.457L68.1822 116.811L68.5134 116.399C76.274 106.731 84.6032 97.5397 93.4501 88.8747L93.8305 88.5022L93.4349 88.146L88.6965 83.8796L117.068 52.3702L126.122 60.5229L126.425 60.7955L126.753 60.554C137.069 52.9631 147.873 45.9967 159.109 39.7107L159.718 39.3698L159.2 38.9027L142.629 23.9821L171 -7.52724L201.367 19.8153L201.592 20.0181L201.876 19.9122C215.402 14.8685 229.376 10.7439 243.722 7.61406L244.674 7.40627L243.95 6.75397L196.56 -35.9154L224.932 -67.4247L300.38 0.509277L300.529 0.643372L300.729 0.637482C303.808 0.546936 306.898 0.501328 309.999 0.501328C327.255 0.501328 344.181 1.9135 360.667 4.62845L362.352 4.90585L361.083 3.76352L250.492 -95.8128L278.863 -127.322L470.771 45.4717L470.805 45.5029L470.845 45.5271C503.82 65.6248 532.742 91.7162 556.096 122.288L556.125 122.325L556.159 122.356L749.41 296.36L721.039 327.869L609.261 227.224L607.991 226.081L608.445 227.728C613.684 246.777 617.149 266.562 618.649 286.893L618.664 287.094L618.813 287.228ZM524.733 151.128L524.703 151.087L524.666 151.054L445.542 79.8109L445.505 79.7773L445.462 79.7518C417.389 63.2 386.024 51.6358 352.586 46.278L350.914 46.01L352.172 47.1433L567.045 240.616L568.305 241.75L567.863 240.114C559.063 207.568 544.267 177.487 524.733 151.128ZM285.505 44.1706L285.342 44.0242L285.124 44.0443C269.242 45.5111 253.763 48.3683 238.809 52.4933L237.929 52.7361L238.607 53.3469L572.687 354.154L573.366 354.765L573.515 353.863C575.872 339.592 577.099 324.94 577.099 310.001C577.099 308.974 577.093 307.949 577.081 306.924L577.079 306.705L576.916 306.558L285.505 44.1706ZM561.119 401.213L561.234 400.897L560.984 400.671L193.6 69.8774L193.35 69.6517L193.047 69.7996C181.26 75.5492 169.959 82.1408 159.223 89.4961L158.699 89.8551L159.171 90.2801L544.302 437.054L544.774 437.479L545.076 436.92C551.258 425.494 556.632 413.566 561.119 401.213ZM125.761 117.253L125.416 116.942L125.081 117.264C116.113 125.87 107.745 135.095 100.045 144.872L99.7551 145.24L100.103 145.553L495.478 501.551L495.826 501.864L496.161 501.537C505.072 492.875 513.381 483.595 521.019 473.768L521.304 473.401L520.958 473.09L125.761 117.253ZM462.235 529.499L462.753 529.139L462.284 528.717L76.5432 181.395L76.0744 180.973L75.7705 181.525C69.5253 192.887 64.0827 204.752 59.5191 217.044L59.4009 217.363L59.6533 217.59L428.062 549.306L428.314 549.534L428.618 549.383C440.338 543.564 451.569 536.91 462.235 529.499ZM47.6511 263.838L46.9782 263.232L46.8238 264.124C44.2436 279.03 42.8988 294.359 42.8988 310.001C42.8988 310.248 42.8992 310.495 42.8998 310.742L42.9004 310.964L43.0653 311.112L336.817 575.607L336.981 575.755L337.202 575.733C352.965 574.139 368.323 571.174 383.156 566.959L384.026 566.711L383.354 566.106L47.6511 263.838ZM270.523 574.204L272.163 574.447L270.931 573.338L52.1497 376.347L50.9171 375.237L51.3309 376.843C59.3263 407.874 72.7581 436.721 90.5499 462.308L90.5829 462.355L90.6259 462.394L181.456 544.178L181.499 544.217L181.55 544.245C208.684 559.155 238.688 569.488 270.523 574.204Z" fill="url(#paint0_linear_790_4)" stroke="url(#paint1_linear_790_4)"/>
</g>
</g>
<defs>
<linearGradient id="paint0_linear_790_4" x1="-127.737" y1="-81.4217" x2="750.116" y2="701.251" gradientUnits="userSpaceOnUse">
<stop stop-color="white" stop-opacity="0"/>
<stop offset="0.649672" stop-color="#F36006"/>
</linearGradient>
<linearGradient id="paint1_linear_790_4" x1="311.189" y1="-128.028" x2="311.189" y2="747.858" gradientUnits="userSpaceOnUse">
<stop stop-color="#FF6100" stop-opacity="0"/>
<stop offset="1" stop-color="#FF6100"/>
</linearGradient>
<clipPath id="clip0_790_4">
<rect width="620" height="620" rx="32" fill="white"/>
</clipPath>
</defs>
</svg>
