<svg width="1066" height="1066" viewBox="0 0 1066 1066" fill="none" xmlns="http://www.w3.org/2000/svg">
<g clip-path="url(#clip0_132_25)" filter="url(#filter0_fn_132_25)">
<mask id="mask0_132_25" style="mask-type:luminance" maskUnits="userSpaceOnUse" x="0" y="0" width="1066" height="1066">
<path d="M1010.98 0H55.0194C24.633 0 0 24.633 0 55.0194V1010.98C0 1041.37 24.633 1066 55.0194 1066H1010.98C1041.37 1066 1066 1041.37 1066 1010.98V55.0194C1066 24.633 1041.37 0 1010.98 0Z" fill="white"/>
</mask>
<g mask="url(#mask0_132_25)">
<mask id="mask1_132_25" style="mask-type:alpha" maskUnits="userSpaceOnUse" x="13" y="13" width="1040" height="1040">
<path d="M533.029 1051.78C819.547 1051.78 1051.82 819.516 1051.82 532.998C1051.82 246.48 819.547 14.2109 533.029 14.2109C246.511 14.2109 14.2422 246.48 14.2422 532.998C14.2422 819.516 246.511 1051.78 533.029 1051.78Z" fill="#D9D9D9" stroke="#F36006"/>
</mask>
<g mask="url(#mask1_132_25)">
<path d="M1063.96 493.845L1168.69 588.14C1183.65 601.61 1184.86 624.658 1171.39 639.618V639.618C1157.92 654.579 1134.87 655.787 1119.91 642.316L1063.35 591.385V591.385C1062.83 590.917 1061.99 591.234 1061.92 591.93V591.93C1059.14 617.103 1054.61 641.747 1048.46 665.737V665.737C1048.38 666.047 1048.48 666.376 1048.71 666.59V666.59L1075.96 691.126C1090.92 704.596 1092.13 727.643 1078.66 742.603V742.603C1065.19 757.564 1042.14 758.771 1027.18 745.301L1023.7 742.164V742.164C1023.26 741.77 1022.57 741.922 1022.33 742.463V742.463C1013.6 762.843 1003.63 782.567 992.513 801.542V801.542C992.308 801.894 992.377 802.343 992.68 802.615V802.615V802.615C1002.42 811.388 1003.21 826.399 994.437 836.143L970.766 862.433C965.672 868.09 956.956 868.547 951.298 863.453V863.453V863.453C950.93 863.121 950.358 863.17 950.05 863.558V863.558C936.797 880.254 922.565 896.136 907.438 911.117V911.117C907.087 911.464 907.1 912.036 907.467 912.367V912.367V912.367C913.06 917.403 913.511 926.02 908.475 931.614L884.331 958.428C875.761 967.946 861.098 968.714 851.581 960.144V960.144V960.144C851.277 959.87 850.821 959.85 850.493 960.094V960.094C832.855 973.227 814.378 985.291 795.153 996.195V996.195C794.643 996.485 794.566 997.189 795.002 997.581V997.581L797.778 1000.08C812.739 1013.55 813.947 1036.6 800.476 1051.56V1051.56C787.006 1066.52 763.958 1067.73 748.998 1054.26L722.901 1030.76V1030.76C722.662 1030.54 722.322 1030.48 722.021 1030.59V1030.59C698.909 1039.38 675.026 1046.6 650.502 1052.12V1052.12C649.822 1052.28 649.597 1053.14 650.116 1053.6V1053.6L705.05 1103.07C720.011 1116.54 721.219 1139.58 707.748 1154.54V1154.54C694.277 1169.5 671.23 1170.71 656.27 1157.24L553.809 1064.99V1064.99C553.643 1064.84 553.425 1064.76 553.201 1064.76V1064.76C546.5 1065.01 539.766 1065.14 533.003 1065.14C505.203 1065.14 477.903 1063.01 451.255 1058.9V1058.9C450.411 1058.77 449.913 1059.82 450.548 1060.39V1060.39L612.322 1206.05C627.283 1219.52 628.491 1242.57 615.02 1257.53V1257.53C601.549 1272.49 578.502 1273.7 563.541 1260.23L269.433 995.41L269.432 995.409C269.387 995.368 269.338 995.333 269.285 995.303V995.303C202.904 957.354 145.484 905.52 100.98 843.759V843.759C100.944 843.71 100.903 843.664 100.858 843.623V843.623L-191.319 580.546C-206.279 567.075 -207.487 544.028 -194.016 529.068V529.068C-180.546 514.108 -157.499 512.9 -142.539 526.37L17.047 670.063V670.063C17.682 670.635 18.6715 670.03 18.4535 669.203V669.203C9.88347 636.742 4.30385 603.065 2.02724 568.487V568.487C2.01252 568.263 1.91111 568.054 1.74463 567.904V567.904L-98.5906 477.562C-113.551 464.091 -114.758 441.044 -101.288 426.084V426.084C-87.818 411.124 -64.7709 409.916 -49.8108 423.386L3.0698 471V471C3.58835 471.466 4.41777 471.153 4.49886 470.46V470.46C7.43097 445.414 12.1024 420.899 18.3892 397.04V397.04C18.4712 396.728 18.3723 396.397 18.133 396.182V396.182L-5.86293 374.575C-20.8229 361.105 -22.0306 338.058 -8.56046 323.098V323.098C4.90984 308.138 27.9573 306.931 42.9172 320.401L43.5474 320.969V320.969C43.9837 321.361 44.6763 321.211 44.9107 320.673V320.673C53.7513 300.378 63.8203 280.743 75.0243 261.859V261.859C75.2334 261.507 75.164 261.055 74.8602 260.781V260.781V260.781C66.5305 253.281 65.8578 240.449 73.3578 232.119L101.355 201.026C105.333 196.608 112.14 196.251 116.558 200.229V200.229V200.229C116.925 200.559 117.495 200.514 117.804 200.129V200.129C131.147 183.506 145.468 167.703 160.679 152.805V152.805C161.033 152.458 161.021 151.884 160.653 151.552V151.552V151.552C156.153 147.501 155.79 140.569 159.841 136.07L187.27 105.608C195.011 97.0104 208.256 96.3165 216.854 104.058V104.058V104.058C217.157 104.331 217.61 104.353 217.938 104.112V104.112C235.675 91.0601 254.251 79.0823 273.57 68.2745V68.2745C274.084 67.9869 274.164 67.2795 273.726 66.8852V66.8852L272.323 65.6213C257.363 52.1511 256.155 29.1038 269.625 14.1436V14.1436C283.095 -0.816643 306.142 -2.02454 321.103 11.4457L346.226 34.0672V34.0672C346.464 34.2815 346.802 34.3456 347.102 34.2338V34.2338C370.358 25.5619 394.384 18.4703 419.05 13.089V13.089C419.734 12.9396 419.962 12.0788 419.442 11.6101V11.6101L365.05 -37.3631C350.09 -50.8335 348.882 -73.8816 362.353 -88.842V-88.842C375.823 -103.802 398.871 -105.01 413.831 -91.5394L516.465 0.873295V0.873295C516.629 1.02102 516.844 1.10022 517.065 1.09372V1.09372C522.359 0.938043 527.672 0.859626 533.003 0.859626C562.673 0.859626 591.774 3.28766 620.12 7.95563V7.95563C620.967 8.09511 621.473 7.04302 620.835 6.46851V6.46851L457.778 -140.349C442.817 -153.819 441.61 -176.866 455.08 -191.826V-191.826C468.55 -206.786 491.597 -207.994 506.557 -194.524L809.428 78.1797V78.1797C809.466 78.2153 809.509 78.2471 809.554 78.2744L809.555 78.2749C866.25 112.83 915.978 157.69 956.132 210.254L956.133 210.256C956.165 210.297 956.201 210.336 956.24 210.371V210.371L1261.42 485.156C1276.38 498.626 1277.59 521.673 1264.12 536.633V536.633C1250.65 551.593 1227.6 552.801 1212.64 539.331L1047.54 390.676V390.676C1046.9 390.102 1045.91 390.715 1046.14 391.543V391.543C1055.15 424.295 1061.1 458.312 1063.68 493.269V493.269C1063.7 493.489 1063.8 493.697 1063.96 493.845V493.845ZM902.207 259.84L902.206 259.839C902.173 259.793 902.134 259.751 902.092 259.713V259.713L766.05 137.221V137.221C766.008 137.183 765.961 137.148 765.912 137.119V137.119C717.645 108.661 663.717 88.778 606.226 79.566V79.566C605.38 79.4304 604.877 80.4803 605.514 81.0537V81.0537L974.957 413.702V413.702C975.594 414.275 976.587 413.666 976.363 412.839V412.839C961.233 356.881 935.793 305.161 902.207 259.84ZM490.89 75.9426V75.9426C490.711 75.7822 490.473 75.7034 490.234 75.7255V75.7255C462.928 78.2474 436.314 83.16 410.603 90.2523V90.2523C409.948 90.4329 409.751 91.2655 410.255 91.7199V91.7199L984.657 608.914V608.914C985.162 609.369 985.97 609.084 986.081 608.414V608.414C990.133 583.877 992.243 558.685 992.243 532.999C992.243 531.234 992.233 529.471 992.212 527.709V527.709C992.21 527.469 992.107 527.24 991.928 527.08V527.08L490.89 75.9426ZM964.768 689.825V689.825C964.887 689.497 964.795 689.128 964.536 688.893V688.893L332.872 120.142V120.142C332.613 119.907 332.236 119.854 331.921 120.008V120.008C311.655 129.894 292.225 141.227 273.766 153.873V153.873C273.307 154.188 273.263 154.849 273.677 155.221V155.221L935.853 751.449V751.449C936.267 751.821 936.92 751.708 937.184 751.218V751.218C947.813 731.573 957.053 711.065 964.768 689.825ZM216.233 201.597V201.597C215.899 201.296 215.388 201.304 215.064 201.616V201.616C199.645 216.413 185.257 232.274 172.018 249.084V249.084C171.738 249.44 171.781 249.952 172.118 250.255V250.255L851.908 862.342V862.342C852.244 862.645 852.758 862.634 853.082 862.318V862.318C868.403 847.425 882.689 831.469 895.822 814.573V814.573C896.098 814.218 896.052 813.708 895.717 813.407V813.407L216.233 201.597ZM794.751 910.395V910.395C795.206 910.078 795.247 909.421 794.835 909.05V909.05L131.61 311.88V311.88C131.199 311.51 130.549 311.619 130.281 312.104V312.104C119.544 331.639 110.186 352.039 102.34 373.173V373.173C102.217 373.504 102.308 373.877 102.57 374.112V374.112L735.996 944.45V944.45C736.257 944.686 736.636 944.739 736.952 944.582V944.582C757.102 934.577 776.412 923.137 794.751 910.395ZM81.9343 453.629V453.629C81.4318 453.176 80.6272 453.454 80.5118 454.121V454.121C76.0756 479.749 73.7634 506.105 73.7634 532.999C73.7634 533.424 73.7641 533.849 73.7651 534.274V534.274C73.7658 534.516 73.8691 534.748 74.0496 534.91V534.91L579.113 989.671V989.671C579.293 989.833 579.534 989.911 579.775 989.887V989.887C606.877 987.146 633.283 982.049 658.786 974.802V974.802C659.437 974.616 659.629 973.787 659.127 973.335V973.335L81.9343 453.629ZM465.13 987.258V987.258C465.972 987.383 466.464 986.339 465.832 985.769V985.769L89.6689 647.072V647.072C89.0362 646.502 88.0487 647.1 88.2611 647.925V647.925C102.008 701.278 125.102 750.876 155.693 794.869V794.869C155.73 794.923 155.774 794.972 155.822 795.016L155.823 795.017L311.992 935.633V935.633C312.041 935.677 312.096 935.716 312.154 935.748V935.748C358.807 961.384 410.395 979.15 465.13 987.258Z" fill="url(#paint0_linear_132_25)"/>
</g>
</g>
</g>
<defs>
<filter id="filter0_fn_132_25" x="-7.7" y="-7.7" width="1081.4" height="1081.4" filterUnits="userSpaceOnUse" color-interpolation-filters="sRGB">
<feFlood flood-opacity="0" result="BackgroundImageFix"/>
<feBlend mode="normal" in="SourceGraphic" in2="BackgroundImageFix" result="shape"/>
<feGaussianBlur stdDeviation="3.85" result="effect1_foregroundBlur_132_25"/>
<feTurbulence type="fractalNoise" baseFrequency="0.25 0.25" stitchTiles="stitch" numOctaves="3" result="noise" seed="9394" />
<feColorMatrix in="noise" type="luminanceToAlpha" result="alphaNoise" />
<feComponentTransfer in="alphaNoise" result="coloredNoise1">
<feFuncA type="discrete" tableValues="1 1 1 1 1 1 1 1 1 1 1 1 1 1 1 1 1 1 1 1 1 1 1 1 1 1 1 1 1 1 1 1 1 1 1 1 1 1 1 1 1 1 1 1 1 1 1 1 1 1 1 0 0 0 0 0 0 0 0 0 0 0 0 0 0 0 0 0 0 0 0 0 0 0 0 0 0 0 0 0 0 0 0 0 0 0 0 0 0 0 0 0 0 0 0 0 0 0 0 0 "/>
</feComponentTransfer>
<feComposite operator="in" in2="effect1_foregroundBlur_132_25" in="coloredNoise1" result="noise1Clipped" />
<feFlood flood-color="rgba(255, 255, 255, 0.17)" result="color1Flood" />
<feComposite operator="in" in2="noise1Clipped" in="color1Flood" result="color1" />
<feMerge result="effect2_noise_132_25">
<feMergeNode in="effect1_foregroundBlur_132_25" />
<feMergeNode in="color1" />
</feMerge>
</filter>
<linearGradient id="paint0_linear_132_25" x1="-219.62" y1="-139.995" x2="1289.72" y2="1205.7" gradientUnits="userSpaceOnUse">
<stop offset="0.201923" stop-color="white" stop-opacity="0"/>
<stop offset="0.634615" stop-color="#0015FF"/>
</linearGradient>
<clipPath id="clip0_132_25">
<rect width="1066" height="1066" fill="white"/>
</clipPath>
</defs>
</svg>
